<svg width="99" height="99" viewBox="0 0 99 99" fill="none" xmlns="http://www.w3.org/2000/svg">
<g filter="url(#filter0_i_1185_2)">
<path d="M97.279 97.279L97.279 1.41501L1.41499 1.41501L1.41498 97.279L97.279 97.279Z" stroke="#454545" stroke-width="2.83" stroke-linejoin="round"/>
<path d="M97.2844 97.2736C97.2844 97.2736 97.4075 89.9637 97.2683 79.928C97.1398 70.7223 50.3832 98.6927 39.4639 91.7845C36.5506 89.9423 36.7595 87.3985 37.6431 82.1129C38.4732 77.1433 42.6931 63.2304 56.4132 60.5956C70.1333 57.9608 97.2844 73.8605 97.2844 67.1236C97.2844 51.3203 80.576 43.4481 75.0655 42.5485C66.6417 41.1722 43.6517 41.0115 34.2158 75.3814C34.2158 75.3814 29.3318 66.8826 19.1247 62.3521C8.91764 57.8216 7.4985 67.7181 7.4985 67.7181C7.4985 67.7181 5.80089 84.571 13.3893 76.265C23.2697 66.8077 27.5646 75.6438 29.5621 78.0215C31.6667 80.5171 34.0337 84.2068 34.355 90.526C34.6763 96.8452 2.18611 79.928 1.42031 85.5617C1.22752 86.9808 1.42031 97.2736 1.42031 97.2736L97.2844 97.2736Z" fill="#454545"/>
<path d="M17.9894 1.24897C15.8473 1.80056 12.6449 7.76629 15.6974 27.7199C18.7499 47.6735 31.8541 54.9566 35.2815 56.3276C39.7049 58.0948 61.2329 56.183 66.8399 47.0309C70.6903 40.7438 51.2508 22.0969 36.2775 6.01513C31.8381 1.24897 27.5967 1.45247 27.5967 1.45247C27.5967 1.45247 19.4996 0.858041 17.9894 1.24897ZM32.9252 11.6274C42.9073 23.0608 54.2551 41.2633 50.7742 43.9141C45.1137 48.2251 36.2722 47.229 32.9359 45.8581C29.8513 44.5889 21.6899 39.7478 19.3657 26.124C17.0415 12.5003 22.1504 9.52281 23.3928 8.7463C24.6353 7.96979 28.882 6.99514 32.9252 11.6328L32.9252 11.6274Z" fill="#454545"/>
</g>
<defs>
<filter id="filter0_i_1185_2" x="0" y="0" width="98.694" height="102.694" filterUnits="userSpaceOnUse" color-interpolation-filters="sRGB">
<feFlood flood-opacity="0" result="BackgroundImageFix"/>
<feBlend mode="normal" in="SourceGraphic" in2="BackgroundImageFix" result="shape"/>
<feColorMatrix in="SourceAlpha" type="matrix" values="0 0 0 0 0 0 0 0 0 0 0 0 0 0 0 0 0 0 127 0" result="hardAlpha"/>
<feOffset dy="4"/>
<feGaussianBlur stdDeviation="2"/>
<feComposite in2="hardAlpha" operator="arithmetic" k2="-1" k3="1"/>
<feColorMatrix type="matrix" values="0 0 0 0 0 0 0 0 0 0 0 0 0 0 0 0 0 0 0.25 0"/>
<feBlend mode="normal" in2="shape" result="effect1_innerShadow_1185_2"/>
</filter>
</defs>
</svg>
