<svg width="96" height="100" viewBox="0 0 96 100" fill="none" xmlns="http://www.w3.org/2000/svg">
<path d="M93.8408 97.7979L93.8408 1.5L1.5004 1.5L1.5004 97.7979L93.8408 97.7979Z" stroke="white" stroke-width="3" stroke-linejoin="round"/>
<path d="M2.00391 88.4775C2.01055 87.5906 2.02602 86.8759 2.05078 86.4395L2.0791 86.0996C2.10734 85.8843 2.19776 85.7453 2.35156 85.6387C2.5247 85.5187 2.80562 85.4223 3.22754 85.3818C4.07425 85.3006 5.29762 85.4597 6.81348 85.8066C9.83075 86.4972 13.7943 87.8813 17.7666 89.2588C21.7169 90.6287 25.68 91.9932 28.6367 92.6133C30.1033 92.9208 31.3927 93.0616 32.3281 92.8887C32.8017 92.8011 33.2394 92.6238 33.5527 92.293C33.8783 91.9492 34.0129 91.5008 33.9883 90.9971C33.6706 84.5189 31.322 80.7135 29.2334 78.1455L29.2324 78.1465C29.0044 77.8651 28.7413 77.4832 28.418 77.0225C28.0998 76.5691 27.7343 76.0527 27.3184 75.5303C26.4893 74.489 25.4377 73.3915 24.1113 72.6797C22.7696 71.9598 21.1624 71.6444 19.2646 72.1455C17.3835 72.6423 15.2548 73.9315 12.8262 76.3418L12.8135 76.3535L12.8027 76.3662C11.9022 77.3882 11.1724 77.983 10.5947 78.2773C10.0286 78.5658 9.65699 78.544 9.39746 78.4219C9.11332 78.288 8.83813 77.9767 8.59766 77.4414C8.36048 76.9134 8.185 76.2296 8.06152 75.4541C7.8149 73.9051 7.79008 72.0858 7.8291 70.6396C7.84854 69.9196 7.88382 69.2976 7.91406 68.8564C7.92917 68.636 7.94307 68.4604 7.95313 68.3408C7.95812 68.2814 7.96206 68.2357 7.96484 68.2051C7.96609 68.1914 7.96609 68.1804 7.9668 68.1729C7.96728 68.1696 7.9689 68.1655 7.96973 68.1602C7.97217 68.1444 7.97578 68.1195 7.98145 68.0869C7.99286 68.0214 8.01119 67.9231 8.03809 67.7988C8.09195 67.5499 8.1801 67.1962 8.31543 66.7852C8.58752 65.9587 9.0439 64.9217 9.78027 64.0283C10.5118 63.1409 11.5145 62.4005 12.8975 62.1348C14.2861 61.868 16.1184 62.068 18.5254 63.1758C23.3898 65.4146 26.9914 68.6367 29.3789 71.3047C30.5719 72.6378 31.46 73.83 32.0479 74.6865C32.3417 75.1146 32.5605 75.4587 32.7051 75.6943C32.7774 75.8121 32.831 75.9034 32.8662 75.9639C32.8837 75.9939 32.8969 76.0166 32.9053 76.0313C32.9093 76.0383 32.9122 76.0435 32.9141 76.0469C32.915 76.0485 32.9156 76.0501 32.916 76.0508L32.916 76.0518L33.5186 77.1387L33.8369 75.9365C38.3801 58.7784 46.1607 50.319 53.7422 46.2959C60.8651 42.5161 67.8881 42.6116 72.0498 43.1992L72.8438 43.3223C75.4116 43.7571 80.7105 45.9145 85.3643 49.9365C90.0053 53.9477 93.9512 59.766 93.9512 67.5146C93.9511 67.8551 93.8696 68.0744 93.7559 68.2227C93.6411 68.3721 93.4553 68.5002 93.1563 68.5869C92.5319 68.768 91.5526 68.7316 90.2266 68.4814C87.5973 67.9855 83.9362 66.7214 79.8008 65.3076C75.6856 63.9008 71.1284 62.356 66.7656 61.3301C62.4133 60.3067 58.1911 59.7836 54.7598 60.4668C47.9413 61.8245 43.493 66.0909 40.6592 70.6191C37.83 75.1399 36.59 79.9503 36.1807 82.4912C35.7555 85.1282 35.4746 87.1693 35.6807 88.7881C35.7854 89.6111 36.0166 90.3422 36.4268 90.998C36.8368 91.6536 37.4102 92.2094 38.1631 92.7031C39.6126 93.654 41.6017 93.9734 43.8945 93.8857C46.1975 93.7977 48.8753 93.2963 51.7598 92.5352C57.5289 91.0128 64.2136 88.4282 70.54 85.9297C76.8857 83.4235 82.8574 81.0091 87.2539 79.793C89.4629 79.1819 91.2061 78.8947 92.377 79.0146C92.9575 79.0742 93.3381 79.2288 93.5703 79.4355C93.7866 79.6283 93.9293 79.9162 93.9355 80.3828C94.0029 85.4193 94.0071 89.7719 93.9941 92.8652C93.9877 94.4117 93.9768 95.6434 93.9678 96.4883C93.9642 96.8191 93.9597 97.091 93.957 97.2988L2.07422 97.2988C2.06955 97.0163 2.06356 96.6234 2.05664 96.1533C2.04206 95.1625 2.02435 93.827 2.0127 92.4473C2.00103 91.0668 1.99518 89.6433 2.00391 88.4775Z" fill="white" stroke="white"/>
<path d="M15.749 28.1543C14.2682 18.1564 14.3115 11.7037 14.9678 7.70215C15.296 5.70127 15.7742 4.33531 16.2744 3.4502C16.7168 2.66756 17.1507 2.30308 17.4785 2.16406L17.6123 2.11719C17.7439 2.08199 17.9855 2.05029 18.3369 2.0293C18.6788 2.00889 19.0957 2.00061 19.5625 2.00098C20.4963 2.00172 21.6104 2.03891 22.6836 2.08887C23.7556 2.13877 24.7827 2.20126 25.542 2.25098C25.9214 2.27582 26.2338 2.297 26.4512 2.3125C26.5596 2.32024 26.6445 2.3268 26.7021 2.33105C26.731 2.33318 26.7538 2.33483 26.7686 2.33594C26.7757 2.33647 26.7815 2.33664 26.7852 2.33691L26.79 2.33691L26.8213 2.33984L26.8525 2.33789L26.8809 2.33789C26.9054 2.33764 26.9448 2.33722 26.998 2.33887C27.105 2.34219 27.2683 2.35205 27.4795 2.37793C27.9018 2.42968 28.517 2.54681 29.2656 2.80762C30.6666 3.29575 32.5463 4.29275 34.5068 6.33496L34.9004 6.75781C42.1991 14.8544 50.5437 23.5513 56.6123 31.0303C59.6463 34.7695 62.0872 38.1749 63.5361 41.0234C64.2606 42.4477 64.7249 43.7095 64.9004 44.7871C65.0755 45.8625 64.9576 46.7166 64.5684 47.373C63.2707 49.5608 61.0282 51.3496 58.2764 52.7715C55.5291 54.1909 52.3106 55.2254 49.1123 55.9229C45.9153 56.62 42.7547 56.9766 40.1328 57.0498C38.822 57.0864 37.6515 57.0519 36.6826 56.9551C35.7052 56.8574 34.964 56.6992 34.4932 56.5049C31.2768 55.1759 18.6858 47.9821 15.749 28.1543ZM19.0215 12.8564C17.8602 15.529 17.189 19.8035 18.3291 26.7061C20.6227 40.5915 28.6987 45.5811 31.8262 46.9102C33.5287 47.6326 36.5652 48.2344 39.8672 48.1133C43.1727 47.992 46.8157 47.1432 49.6807 44.8896C50.2786 44.4193 50.4926 43.6546 50.4961 42.8115C50.4997 41.9603 50.2916 40.9262 49.9297 39.7705C49.2041 37.4538 47.8193 34.5243 46.0381 31.3428C42.472 24.9735 37.2668 17.5046 32.3926 11.7383L31.5107 10.6943L31.5107 10.792C27.6791 7.02426 23.7821 7.89765 22.4678 8.74609C21.8326 9.1561 20.1905 10.1662 19.0215 12.8564Z" fill="white" stroke="white"/>
</svg>
