<svg width="100" height="100" viewBox="0 0 100 100" fill="none" xmlns="http://www.w3.org/2000/svg">
<path d="M97.9444 98.1632L97.9444 2.29919L2.08033 2.29919L2.08033 98.1632L97.9444 98.1632Z" stroke="#252525" stroke-width="2.83" stroke-linejoin="round"/>
<path d="M97.9497 98.1578C97.9497 98.1578 98.0729 90.8479 97.9337 80.8122C97.8051 71.6066 51.0486 99.5769 40.1293 92.6687C37.216 90.8265 37.4249 88.2828 38.3085 82.9971C39.1385 78.0275 43.3585 64.1146 57.0786 61.4798C70.7987 58.845 97.9497 74.7447 97.9497 68.0078C97.9497 52.2045 81.2414 44.3324 75.7309 43.4327C67.3071 42.0564 44.3171 41.8957 34.8811 76.2656C34.8811 76.2656 29.9972 67.7669 19.7901 63.2363C9.58301 58.7058 8.16387 68.6023 8.16387 68.6023C8.16387 68.6023 6.46627 85.4552 14.0546 77.1492C23.935 67.6919 28.2299 76.528 30.2274 78.9057C32.332 81.4013 34.6991 85.091 35.0204 91.4102C35.3417 97.7294 2.85148 80.8122 2.08568 86.4459C1.8929 87.865 2.08568 98.1578 2.08568 98.1578L97.9497 98.1578Z" fill="#252525"/>
<path d="M18.6548 2.13316C16.5127 2.68475 13.3103 8.65047 16.3628 28.6041C19.4152 48.5577 32.5195 55.8408 35.9468 57.2117C40.3703 58.979 61.8983 57.0672 67.5052 47.9151C71.3556 41.628 51.9161 22.9811 36.9429 6.89932C32.5034 2.13316 28.2621 2.33665 28.2621 2.33665C28.2621 2.33665 20.165 1.74223 18.6548 2.13316ZM33.5905 12.5116C43.5727 23.945 54.9204 42.1475 51.4395 44.7983C45.7791 49.1093 36.9376 48.1132 33.6012 46.7423C30.5166 45.4731 22.3553 40.6319 20.0311 27.0082C17.7069 13.3845 22.8158 10.407 24.0582 9.63049C25.3006 8.85398 29.5473 7.87933 33.5905 12.517L33.5905 12.5116Z" fill="#252525"/>
</svg>
