<svg width="213" height="201" viewBox="0 0 213 201" fill="none" xmlns="http://www.w3.org/2000/svg">
<path d="M152.341 97.7979L152.341 1.5L60.0004 1.5L60.0004 97.7979L152.341 97.7979Z" stroke="white" stroke-width="3" stroke-linejoin="round"/>
<path d="M60.5039 88.4775C60.5105 87.5906 60.526 86.8759 60.5508 86.4395L60.5791 86.0996C60.6073 85.8843 60.6978 85.7453 60.8516 85.6387C61.0247 85.5187 61.3056 85.4223 61.7275 85.3818C62.5743 85.3006 63.7976 85.4597 65.3135 85.8066C68.3308 86.4972 72.2943 87.8813 76.2666 89.2588C80.2169 90.6287 84.18 91.9932 87.1367 92.6133C88.6033 92.9208 89.8927 93.0616 90.8281 92.8887C91.3017 92.8011 91.7394 92.6238 92.0527 92.293C92.3783 91.9492 92.5129 91.5008 92.4883 90.9971C92.1706 84.5189 89.822 80.7135 87.7334 78.1455L87.7324 78.1465C87.5044 77.8651 87.2413 77.4832 86.918 77.0225C86.5998 76.5691 86.2343 76.0527 85.8184 75.5303C84.9893 74.489 83.9377 73.3915 82.6113 72.6797C81.2696 71.9598 79.6624 71.6444 77.7646 72.1455C75.8835 72.6423 73.7548 73.9315 71.3262 76.3418L71.3135 76.3535L71.3027 76.3662C70.4022 77.3882 69.6724 77.983 69.0947 78.2773C68.5286 78.5658 68.157 78.544 67.8975 78.4219C67.6133 78.288 67.3381 77.9767 67.0977 77.4414C66.8605 76.9134 66.685 76.2296 66.5615 75.4541C66.3149 73.9051 66.2901 72.0858 66.3291 70.6396C66.3485 69.9196 66.3838 69.2976 66.4141 68.8564C66.4292 68.636 66.4431 68.4604 66.4531 68.3408C66.4581 68.2814 66.4621 68.2357 66.4648 68.2051C66.4661 68.1914 66.4661 68.1804 66.4668 68.1729C66.4673 68.1696 66.4689 68.1655 66.4697 68.1602C66.4722 68.1444 66.4758 68.1195 66.4814 68.0869C66.4929 68.0214 66.5112 67.9231 66.5381 67.7988C66.592 67.5499 66.6801 67.1962 66.8154 66.7852C67.0875 65.9587 67.5439 64.9217 68.2803 64.0283C69.0118 63.1409 70.0145 62.4005 71.3975 62.1348C72.7861 61.868 74.6184 62.068 77.0254 63.1758C81.8898 65.4146 85.4914 68.6367 87.8789 71.3047C89.0719 72.6378 89.96 73.83 90.5479 74.6865C90.8417 75.1146 91.0605 75.4587 91.2051 75.6943C91.2774 75.8121 91.331 75.9034 91.3662 75.9639C91.3837 75.9939 91.3969 76.0166 91.4053 76.0313C91.4093 76.0383 91.4122 76.0435 91.4141 76.0469C91.415 76.0485 91.4156 76.0501 91.416 76.0508L91.416 76.0518L92.0186 77.1387L92.3369 75.9365C96.8801 58.7784 104.661 50.319 112.242 46.2959C119.365 42.5161 126.388 42.6116 130.55 43.1992L131.344 43.3223C133.912 43.7571 139.211 45.9145 143.864 49.9365C148.505 53.9477 152.451 59.766 152.451 67.5146C152.451 67.8551 152.37 68.0744 152.256 68.2227C152.141 68.3721 151.955 68.5002 151.656 68.5869C151.032 68.768 150.053 68.7316 148.727 68.4814C146.097 67.9855 142.436 66.7214 138.301 65.3076C134.186 63.9008 129.628 62.356 125.266 61.3301C120.913 60.3067 116.691 59.7836 113.26 60.4668C106.441 61.8245 101.993 66.0909 99.1592 70.6191C96.33 75.1399 95.09 79.9503 94.6807 82.4912C94.2555 85.1282 93.9746 87.1693 94.1807 88.7881C94.2854 89.6111 94.5166 90.3422 94.9268 90.998C95.3368 91.6536 95.9102 92.2094 96.6631 92.7031C98.1126 93.654 100.102 93.9734 102.395 93.8857C104.698 93.7977 107.375 93.2963 110.26 92.5352C116.029 91.0128 122.714 88.4282 129.04 85.9297C135.386 83.4235 141.357 81.0091 145.754 79.793C147.963 79.1819 149.706 78.8947 150.877 79.0146C151.458 79.0742 151.838 79.2288 152.07 79.4355C152.287 79.6283 152.429 79.9162 152.436 80.3828C152.503 85.4193 152.507 89.7719 152.494 92.8652C152.488 94.4117 152.477 95.6434 152.468 96.4883C152.464 96.8191 152.46 97.091 152.457 97.2988L60.5742 97.2988C60.5695 97.0163 60.5636 96.6234 60.5566 96.1533C60.5421 95.1625 60.5244 93.827 60.5127 92.4473C60.501 91.0668 60.4952 89.6433 60.5039 88.4775Z" fill="white" stroke="white"/>
<path d="M74.249 28.1543C72.7682 18.1564 72.8115 11.7037 73.4678 7.70215C73.796 5.70127 74.2742 4.33531 74.7744 3.4502C75.2168 2.66756 75.6507 2.30308 75.9785 2.16406L76.1123 2.11719C76.2439 2.08199 76.4855 2.05029 76.8369 2.0293C77.1788 2.00889 77.5957 2.00061 78.0625 2.00098C78.9963 2.00172 80.1104 2.03891 81.1836 2.08887C82.2556 2.13877 83.2827 2.20126 84.042 2.25098C84.4214 2.27582 84.7338 2.297 84.9512 2.3125C85.0596 2.32024 85.1445 2.3268 85.2021 2.33105C85.231 2.33318 85.2538 2.33483 85.2686 2.33594C85.2757 2.33647 85.2815 2.33664 85.2852 2.33691L85.29 2.33691L85.3213 2.33984L85.3525 2.33789L85.3809 2.33789C85.4054 2.33764 85.4448 2.33722 85.498 2.33887C85.605 2.34219 85.7683 2.35205 85.9795 2.37793C86.4018 2.42968 87.017 2.54681 87.7656 2.80762C89.1666 3.29575 91.0463 4.29275 93.0068 6.33496L93.4004 6.75781C100.699 14.8544 109.044 23.5513 115.112 31.0303C118.146 34.7695 120.587 38.1749 122.036 41.0234C122.761 42.4477 123.225 43.7095 123.4 44.7871C123.576 45.8625 123.458 46.7166 123.068 47.373C121.771 49.5608 119.528 51.3496 116.776 52.7715C114.029 54.1909 110.811 55.2254 107.612 55.9229C104.415 56.62 101.255 56.9766 98.6328 57.0498C97.322 57.0864 96.1515 57.0519 95.1826 56.9551C94.2052 56.8574 93.464 56.6992 92.9932 56.5049C89.7768 55.1759 77.1858 47.9821 74.249 28.1543ZM77.5215 12.8564C76.3602 15.529 75.689 19.8035 76.8291 26.7061C79.1227 40.5915 87.1987 45.5811 90.3262 46.9102C92.0287 47.6326 95.0652 48.2344 98.3672 48.1133C101.673 47.992 105.316 47.1432 108.181 44.8896C108.779 44.4193 108.993 43.6546 108.996 42.8115C109 41.9603 108.792 40.9262 108.43 39.7705C107.704 37.4538 106.319 34.5243 104.538 31.3428C100.972 24.9735 95.7668 17.5046 90.8926 11.7383L90.0107 10.6943L90.0107 10.792C86.1791 7.02426 82.2821 7.89765 80.9678 8.74609C80.3326 9.1561 78.6905 10.1662 77.5215 12.8564Z" fill="white" stroke="white"/>
<path d="M25.129 160.5V147.486H29.53C30.46 147.486 31.288 147.642 32.014 147.954C32.74 148.266 33.31 148.728 33.724 149.34C34.144 149.952 34.354 150.705 34.354 151.599C34.354 152.463 34.159 153.201 33.769 153.813C33.385 154.425 32.848 154.89 32.158 155.208C31.468 155.526 30.667 155.685 29.755 155.685H26.839V160.5H25.129ZM26.83 154.281H29.719C30.613 154.281 31.339 154.032 31.897 153.534C32.455 153.036 32.734 152.358 32.734 151.5C32.734 150.636 32.446 149.982 31.87 149.538C31.294 149.094 30.55 148.872 29.638 148.872H26.83V154.281ZM37.2456 160.5L41.9526 147.486H43.8336L48.5406 160.5H46.8396L45.5616 156.936H40.2246L38.9376 160.5H37.2456ZM40.6656 155.406H45.1026L42.8886 149.115L40.6656 155.406ZM53.6969 160.5V147.486H58.7369C59.6729 147.486 60.4559 147.63 61.0859 147.918C61.7159 148.2 62.1869 148.608 62.4989 149.142C62.8109 149.67 62.9669 150.303 62.9669 151.041C62.9669 151.749 62.8409 152.337 62.5889 152.805C62.3429 153.273 62.0279 153.651 61.6439 153.939C61.2599 154.221 60.8609 154.44 60.4469 154.596L63.0029 160.5H61.2389L58.8629 154.893H55.3619V160.5H53.6969ZM55.3619 153.516H58.1969C59.1749 153.516 59.9309 153.318 60.4649 152.922C60.9989 152.52 61.2659 151.926 61.2659 151.14C61.2659 150.372 61.0259 149.799 60.5459 149.421C60.0719 149.037 59.4209 148.845 58.5929 148.845H55.3619V153.516ZM68.5786 160.5V147.486H70.2436V160.5H68.5786ZM80.7862 160.68C80.1502 160.68 79.5472 160.605 78.9772 160.455C78.4072 160.299 77.8882 160.068 77.4202 159.762C76.9582 159.456 76.5742 159.078 76.2682 158.628C75.9682 158.172 75.7792 157.644 75.7012 157.044H77.4472C77.5552 157.536 77.7682 157.95 78.0862 158.286C78.4102 158.622 78.8092 158.874 79.2832 159.042C79.7632 159.21 80.2882 159.294 80.8582 159.294C81.4102 159.294 81.9172 159.207 82.3792 159.033C82.8472 158.859 83.2222 158.607 83.5042 158.277C83.7862 157.941 83.9272 157.539 83.9272 157.071C83.9272 156.555 83.7592 156.141 83.4232 155.829C83.0872 155.511 82.5682 155.256 81.8662 155.064L79.1842 154.371C78.5782 154.221 78.0412 154.011 77.5732 153.741C77.1112 153.465 76.7482 153.105 76.4842 152.661C76.2202 152.211 76.0882 151.653 76.0882 150.987C76.0882 150.249 76.2922 149.607 76.7002 149.061C77.1082 148.509 77.6602 148.083 78.3562 147.783C79.0582 147.477 79.8502 147.324 80.7322 147.324C81.7522 147.324 82.6102 147.501 83.3062 147.855C84.0082 148.209 84.5392 148.674 84.8992 149.25C85.2592 149.826 85.4392 150.441 85.4392 151.095H83.7292C83.6752 150.501 83.5012 150.033 83.2072 149.691C82.9132 149.343 82.5472 149.094 82.1092 148.944C81.6712 148.788 81.1942 148.71 80.6782 148.71C79.7482 148.71 79.0432 148.923 78.5632 149.349C78.0892 149.769 77.8522 150.27 77.8522 150.852C77.8522 151.386 78.0232 151.806 78.3652 152.112C78.7072 152.418 79.2112 152.655 79.8772 152.823L82.4872 153.498C83.2612 153.678 83.8762 153.939 84.3322 154.281C84.7942 154.623 85.1242 155.022 85.3222 155.478C85.5262 155.928 85.6282 156.417 85.6282 156.945C85.6282 157.665 85.4272 158.307 85.0252 158.871C84.6232 159.435 84.0592 159.879 83.3332 160.203C82.6132 160.521 81.7642 160.68 80.7862 160.68ZM95.6049 156.513V155.208L100.168 155.19V156.504L95.6049 156.513ZM112.743 160.5L108.108 147.486H109.755L113.742 158.61L117.729 147.486H119.376L114.75 160.5H112.743ZM124.224 160.5V147.486H125.889V160.5H124.224ZM132.022 160.5V147.486H140.23L140.221 148.953H133.696V153.201H139.573V154.659H133.687V158.997L140.401 159.015V160.5H132.022ZM145.989 160.5V147.486H147.582L154.458 157.602V147.486H156.123V160.5H154.638L147.654 150.24V160.5H145.989ZM162.259 160.5V147.486H163.852L170.728 157.602V147.486H172.393V160.5H170.908L163.924 150.24V160.5H162.259ZM177.558 160.5L182.265 147.486H184.146L188.853 160.5H187.152L185.874 156.936H180.537L179.25 160.5H177.558ZM180.978 155.406H185.415L183.201 149.115L180.978 155.406Z" fill="white"/>
</svg>
